<?xml version="1.0" encoding="UTF-8" standalone="no"?>
<svg
   xmlns:dc="http://purl.org/dc/elements/1.1/"
   xmlns:cc="http://creativecommons.org/ns#"
   xmlns:rdf="http://www.w3.org/1999/02/22-rdf-syntax-ns#"
   xmlns:svg="http://www.w3.org/2000/svg"
   xmlns="http://www.w3.org/2000/svg"
   viewBox="0 0 133.33333 133.33333"
   height="133.33333"
   width="133.33333"
   xml:space="preserve"
   id="svg2"
   version="1.1"><metadata
     id="metadata8"><rdf:RDF><cc:Work
         rdf:about=""><dc:format>image/svg+xml</dc:format><dc:type
           rdf:resource="http://purl.org/dc/dcmitype/StillImage" /></cc:Work></rdf:RDF></metadata><defs
     id="defs6"><radialGradient
       id="radialGradient28"
       spreadMethod="pad"
       gradientTransform="matrix(96.820267,0,0,-96.820267,21.746447,88.827255)"
       gradientUnits="userSpaceOnUse"
       r="1"
       cy="0"
       cx="0"
       fy="0"
       fx="0"><stop
         id="stop24"
         offset="0"
         style="stop-opacity:1;stop-color:#ffdff6" /><stop
         id="stop26"
         offset="1"
         style="stop-opacity:1;stop-color:#ff66d2" /></radialGradient><clipPath
       id="clipPath38"
       clipPathUnits="userSpaceOnUse"><path
         id="path36"
         d="M 0,100 H 100 V 0 H 0 Z" /></clipPath><radialGradient
       id="radialGradient60"
       spreadMethod="pad"
       gradientTransform="matrix(73.081924,0,0,-73.081924,17.439056,96.025078)"
       gradientUnits="userSpaceOnUse"
       r="1"
       cy="0"
       cx="0"
       fy="0"
       fx="0"><stop
         id="stop56"
         offset="0"
         style="stop-opacity:1;stop-color:#ffffff" /><stop
         id="stop58"
         offset="1"
         style="stop-opacity:1;stop-color:#8c1c6c" /></radialGradient><clipPath
       id="clipPath70"
       clipPathUnits="userSpaceOnUse"><path
         id="path68"
         d="M 0,100 H 100 V 0 H 0 Z" /></clipPath><clipPath
       id="clipPath88"
       clipPathUnits="userSpaceOnUse"><path
         id="path86"
         d="M 0,100 H 100 V 0 H 0 Z" /></clipPath><clipPath
       id="clipPath96"
       clipPathUnits="userSpaceOnUse"><path
         id="path94"
         d="M 2.74771,97.2538 H 70.136 V 7.57381 H 2.74771 Z" /></clipPath><linearGradient
       id="linearGradient106"
       spreadMethod="pad"
       gradientTransform="matrix(51.401012,-65.83979,-65.83979,-51.401012,0.6431717,109.20909)"
       gradientUnits="userSpaceOnUse"
       y2="0"
       x2="1"
       y1="0"
       x1="0"><stop
         id="stop102"
         offset="0"
         style="stop-opacity:1;stop-color:#ffffff" /><stop
         id="stop104"
         offset="1"
         style="stop-opacity:1;stop-color:#000000" /></linearGradient><clipPath
       id="clipPath128"
       clipPathUnits="userSpaceOnUse"><path
         id="path126"
         d="M 4.69772,77.9017 H 97.1456 V 2.85741 H 4.69772 Z" /></clipPath><linearGradient
       id="linearGradient138"
       spreadMethod="pad"
       gradientTransform="matrix(18.898966,-47.246719,-47.246719,-18.898966,49.297821,51.403385)"
       gradientUnits="userSpaceOnUse"
       y2="0"
       x2="1"
       y1="0"
       x1="0"><stop
         id="stop134"
         offset="0"
         style="stop-opacity:1;stop-color:#ffffff" /><stop
         id="stop136"
         offset="1"
         style="stop-opacity:1;stop-color:#3d9941" /></linearGradient><clipPath
       id="clipPath160"
       clipPathUnits="userSpaceOnUse"><path
         id="path158"
         d="M 52.5998,41.3365 H 96.3934 V 2.5834 H 52.5998 Z" /></clipPath><linearGradient
       id="linearGradient170"
       spreadMethod="pad"
       gradientTransform="matrix(-9.7915154,12.770657,12.770657,9.7915154,75.337883,20.247952)"
       gradientUnits="userSpaceOnUse"
       y2="0"
       x2="1"
       y1="0"
       x1="0"><stop
         id="stop166"
         offset="0"
         style="stop-opacity:1;stop-color:#ffffff" /><stop
         id="stop168"
         offset="1"
         style="stop-opacity:1;stop-color:#3d9941" /></linearGradient><linearGradient
       id="linearGradient204"
       spreadMethod="pad"
       gradientTransform="matrix(6.9647064,-7.2124667,-7.2124667,-6.9647064,67.197296,28.847528)"
       gradientUnits="userSpaceOnUse"
       y2="0"
       x2="1"
       y1="0"
       x1="0"><stop
         id="stop198"
         offset="0"
         style="stop-opacity:1;stop-color:#ffffff" /><stop
         id="stop200"
         offset="0.648352"
         style="stop-opacity:1;stop-color:#ffffff" /><stop
         id="stop202"
         offset="1"
         style="stop-opacity:1;stop-color:#aaf2ad" /></linearGradient></defs><g
     transform="matrix(1.3333333,0,0,-1.3333333,0,133.33333)"
     id="g10"><g
       id="g12"><g
         id="g14"><g
           id="g20"><g
             id="g22"><path
               id="path30"
               style="fill:url(#radialGradient28);stroke:none"
               d="m 2.187,50.243 c 0,-26.232 21.34,-47.572 47.571,-47.572 v 0 c 0.985,0 1.962,0.041 2.845,0.057 v 0 l 43.595,37.215 c 0.751,3.405 1.132,6.87 1.132,10.3 v 0 c 0,26.231 -21.34,47.571 -47.572,47.571 v 0 C 23.527,97.814 2.187,76.474 2.187,50.243" /></g></g></g></g><g
       id="g32"><g
         clip-path="url(#clipPath38)"
         id="g34"><g
           transform="translate(49.7578,98)"
           id="g40"><path
             id="path42"
             style="fill:#ff72d6;fill-opacity:1;fill-rule:nonzero;stroke:none"
             d="m 0,0 c -26.377,0 -47.758,-21.381 -47.758,-47.758 0,-26.374 21.381,-47.758 47.758,-47.758 0.988,0 1.969,0.041 2.943,0.099 0.008,0 0.016,0.003 0.023,0.003 l 43.657,37.317 c 0.734,3.332 1.135,6.789 1.135,10.339 C 47.758,-21.381 26.376,0 0,0 m 0,-0.373 c 26.128,0 47.385,-21.257 47.385,-47.385 0,-3.375 -0.37,-6.785 -1.1,-10.137 L 2.817,-95.05 C 1.742,-95.113 0.845,-95.143 0,-95.143 c -26.128,0 -47.385,21.257 -47.385,47.385 0,26.128 21.257,47.385 47.385,47.385" /></g></g></g><g
       id="g44"><g
         id="g46"><g
           id="g52"><g
             id="g54"><path
               id="path62"
               style="fill:url(#radialGradient60);stroke:none"
               d="m 2.187,50.243 c 0,-26.232 21.34,-47.572 47.571,-47.572 v 0 c 0.985,0 1.962,0.041 2.845,0.057 v 0 l 43.595,37.215 c 0.751,3.405 1.132,6.87 1.132,10.3 v 0 c 0,26.231 -21.34,47.571 -47.572,47.571 v 0 C 23.527,97.814 2.187,76.474 2.187,50.243" /></g></g></g></g><g
       id="g64"><g
         clip-path="url(#clipPath70)"
         id="g66"><g
           transform="translate(49.7578,98)"
           id="g72"><path
             id="path74"
             style="fill:#4da150;fill-opacity:1;fill-rule:nonzero;stroke:none"
             d="m 0,0 c -26.377,0 -47.758,-21.381 -47.758,-47.758 0,-26.374 21.381,-47.758 47.758,-47.758 0.988,0 1.969,0.041 2.943,0.099 0.008,0 0.016,0.003 0.023,0.003 l 43.657,37.317 c 0.734,3.332 1.135,6.789 1.135,10.339 C 47.758,-21.381 26.376,0 0,0 m 0,-0.373 c 26.128,0 47.385,-21.257 47.385,-47.385 0,-3.375 -0.37,-6.785 -1.1,-10.137 L 2.817,-95.05 C 1.742,-95.113 0.845,-95.143 0,-95.143 c -26.128,0 -47.385,21.257 -47.385,47.385 0,26.128 21.257,47.385 47.385,47.385" /></g></g></g><text
       id="text80"
       style="font-variant:normal;font-weight:bold;font-stretch:condensed;font-size:31.34110069px;font-family:HelveticaNeue;-inkscape-font-specification:HelveticaNeue-CondensedBold;writing-mode:lr-tb;fill:#ffffff;fill-opacity:1;fill-rule:nonzero;stroke:none"
       transform="matrix(1,0,0,-1,23.6869,53.5582)"><tspan
         id="tspan76"
         y="0"
         x="0 15.043728 30.087456">20%</tspan><tspan
         id="tspan78"
         y="29.836727"
         x="10.436586 25.480314 34.757278">off</tspan></text>
<g
       id="g82"><g
         clip-path="url(#clipPath88)"
         id="g84"><g
           id="g90"><g
             id="g92" /><g
             id="g120"><g
               id="g118"
               clip-path="url(#clipPath96)"><g
                 id="g116"><g
                   id="g114"><g
                     id="g112"><g
                       id="g110"><path
                         id="path108"
                         style="fill:url(#linearGradient106);stroke:none"
                         d="m 3.431,49.93 c 0,25.925 21.088,47.012 47.012,47.012 7.029,0 13.699,-1.563 19.693,-4.34 -6.168,2.979 -13.081,4.652 -20.377,4.652 C 23.836,97.254 2.748,76.164 2.748,50.242 2.748,31.354 13.953,15.039 30.063,7.574 14.318,15.179 3.431,31.307 3.431,49.93" /></g></g></g></g></g></g></g><g
           id="g122"><g
             id="g124" /><g
             id="g152"><g
               style="opacity:0.80000299"
               id="g150"
               clip-path="url(#clipPath128)"><g
                 id="g148"><g
                   id="g146"><g
                     id="g144"><g
                       id="g142"><path
                         id="path140"
                         style="fill:url(#linearGradient138);stroke:none"
                         d="m 49.758,2.857 c -20.33,0 -38.372,12.96 -44.894,32.251 l -0.166,0.493 h 0.519 c 14.402,0.064 30.928,4.541 46.53,12.612 14.907,7.713 27.743,18.114 36.142,29.278 l 0.309,0.411 0.296,-0.417 c 5.659,-8.025 8.652,-17.443 8.652,-27.243 0,-3.302 -0.362,-6.672 -1.078,-10.012 L 96.042,40.107 95.946,40.025 52.668,3.032 52.572,2.951 52.448,2.942 C 51.561,2.889 50.66,2.857 49.758,2.857" /></g></g></g></g></g></g></g><g
           id="g154"><g
             id="g156" /><g
             id="g184"><g
               style="opacity:0.80000299"
               id="g182"
               clip-path="url(#clipPath160)"><g
                 id="g180"><g
                   id="g178"><g
                     id="g176"><g
                       id="g174"><path
                         id="path172"
                         style="fill:url(#linearGradient170);stroke:none"
                         d="m 96.38,39.903 c 0.006,0.023 0.009,0.049 0.013,0.073 C 77.853,46.943 50.74,26.049 52.7,2.583 c 0.009,0 0.017,0.003 0.024,0.003 z" /></g></g></g></g></g></g></g></g></g><g
       id="g186"><g
         id="g188"><g
           id="g194"><g
             id="g196"><path
               id="path206"
               style="fill:url(#linearGradient204);stroke:none"
               d="m 52.7,2.583 c 0.009,0 0.017,0.004 0.024,0.004 v 0 L 96.38,39.903 C 72.379,39.854 56.149,24.369 52.7,2.583" /></g></g></g></g></g></svg>