<?xml version="1.0" encoding="UTF-8" standalone="no"?>
<svg
   xmlns:dc="http://purl.org/dc/elements/1.1/"
   xmlns:cc="http://creativecommons.org/ns#"
   xmlns:rdf="http://www.w3.org/1999/02/22-rdf-syntax-ns#"
   xmlns:svg="http://www.w3.org/2000/svg"
   xmlns="http://www.w3.org/2000/svg"
   viewBox="0 0 53.333332 33.333332"
   height="33.333332"
   width="53.333332"
   xml:space="preserve"
   id="svg2"
   version="1.1"><metadata
     id="metadata8"><rdf:RDF><cc:Work
         rdf:about=""><dc:format>image/svg+xml</dc:format><dc:type
           rdf:resource="http://purl.org/dc/dcmitype/StillImage" /></cc:Work></rdf:RDF></metadata><defs
     id="defs6"><clipPath
       id="clipPath18"
       clipPathUnits="userSpaceOnUse"><path
         id="path16"
         d="M 0,25 H 40 V 0 H 0 Z" /></clipPath></defs><g
     transform="matrix(1.3333333,0,0,-1.3333333,0,33.333333)"
     id="g10"><g
       id="g12"><g
         clip-path="url(#clipPath18)"
         id="g14"><g
           transform="translate(34.1623,4.8509)"
           id="g20"><path
             id="path22"
             style="fill:none;stroke:#333333;stroke-width:1;stroke-linecap:butt;stroke-linejoin:miter;stroke-miterlimit:10;stroke-dasharray:none;stroke-opacity:1"
             d="M 0,0 C 0,2.278 -1.847,4.125 -4.125,4.125 -6.403,4.125 -8.25,2.278 -8.25,0 c 0,-2.278 1.847,-4.125 4.125,-4.125 C -1.847,-4.125 0,-2.278 0,0 Z" /></g><g
           transform="translate(13.1623,4.8509)"
           id="g24"><path
             id="path26"
             style="fill:none;stroke:#333333;stroke-width:1;stroke-linecap:butt;stroke-linejoin:miter;stroke-miterlimit:10;stroke-dasharray:none;stroke-opacity:1"
             d="M 0,0 C 0,2.278 -1.847,4.125 -4.125,4.125 -6.403,4.125 -8.25,2.278 -8.25,0 c 0,-2.278 1.847,-4.125 4.125,-4.125 C -1.847,-4.125 0,-2.278 0,0 Z" /></g><g
           transform="translate(37.9894,16)"
           id="g28"><path
             id="path30"
             style="fill:none;stroke:#333333;stroke-width:1;stroke-linecap:butt;stroke-linejoin:miter;stroke-miterlimit:10;stroke-dasharray:none;stroke-opacity:1"
             d="M 0,0 H -1.489 V 2.422 C -1.489,3.092 -2.025,4 -2.695,4 h -4.95 c 0.091,-0.262 0.156,-0.536 0.156,-0.833 v -8.845 c 0,0.005 -0.276,0.09 -0.369,0.09 -0.472,0 -0.926,-0.096 -1.368,-0.23 0.409,0.099 0.835,0.154 1.274,0.154 2.635,0 4.834,-1.859 5.362,-4.336 L 0,-10 c 0.67,0 1.511,0.396 1.511,1.066 v 7.933 C 1.511,-0.332 0.67,0 0,0 Z" /></g><g
           transform="translate(27.3119,22)"
           id="g32"><path
             id="path34"
             style="fill:none;stroke:#333333;stroke-width:1;stroke-linecap:butt;stroke-linejoin:miter;stroke-miterlimit:10;stroke-dasharray:none;stroke-opacity:1"
             d="m 0,0 h -23.556 c -1.65,0 -3.256,-1.183 -3.256,-2.833 v -10.319 c 0,-1.623 1.555,-2.803 3.177,-2.841 0.531,2.474 2.728,4.329 5.36,4.329 2.635,0 4.834,-1.859 5.363,-4.336 h 10.247 c 0.47,2 2.796,4.412 5.484,4.412 0.093,0 0.369,-0.085 0.369,-0.09 v 8.845 C 3.188,-1.183 1.65,0 0,0 Z" /></g></g></g></g></svg>