<?xml version="1.0" encoding="UTF-8" standalone="no"?>
<svg
   xmlns:dc="http://purl.org/dc/elements/1.1/"
   xmlns:cc="http://creativecommons.org/ns#"
   xmlns:rdf="http://www.w3.org/1999/02/22-rdf-syntax-ns#"
   xmlns:svg="http://www.w3.org/2000/svg"
   xmlns="http://www.w3.org/2000/svg"
   viewBox="0 0 37.299866 33.333332"
   height="33.333332"
   width="37.299866"
   xml:space="preserve"
   id="svg2"
   version="1.1"><metadata
     id="metadata8"><rdf:RDF><cc:Work
         rdf:about=""><dc:format>image/svg+xml</dc:format><dc:type
           rdf:resource="http://purl.org/dc/dcmitype/StillImage" /></cc:Work></rdf:RDF></metadata><defs
     id="defs6"><clipPath
       id="clipPath18"
       clipPathUnits="userSpaceOnUse"><path
         id="path16"
         d="M 0,25 H 27.975 V 0 H 0 Z" /></clipPath></defs><g
     transform="matrix(1.3333333,0,0,-1.3333333,0,33.333333)"
     id="g10"><g
       id="g12"><g
         clip-path="url(#clipPath18)"
         id="g14"><g
           transform="translate(9.8593,19.4769)"
           id="g20"><path
             id="path22"
             style="fill:#ffffff;fill-opacity:1;fill-rule:nonzero;stroke:none"
             d="M 0,0 V -7.607 L -2.816,-7.98 V 0 Z M 14.797,-5.648 11.584,-6.073 V 0 h 3.213 z M 6.586,0 H 9.997 V -6.283 L 6.586,-6.735 Z M 4.998,-6.945 1.587,-7.397 V 0 h 3.411 z m 11.729,-4.001 -19.543,10e-4 v 0.964 l 17.948,2.376 c 0.96,0.154 1.622,0.909 1.649,1.881 V 0.199 C 16.777,1.188 15.984,1.981 14.995,1.984 H -2.816 v 1.357 c -0.005,1.208 -0.973,2.177 -2.183,2.182 h -3.472 c -0.767,0 -1.388,-0.622 -1.388,-1.389 0,-0.767 0.621,-1.389 1.388,-1.389 h 2.877 V -11.54 c 0.006,-1.21 0.973,-2.178 2.182,-2.183 h 20.139 c 0.767,0 1.389,0.622 1.389,1.389 0,0.767 -0.622,1.388 -1.389,1.388" /></g><g
           transform="translate(10.5818,5.4892)"
           id="g24"><path
             id="path26"
             style="fill:#ffffff;fill-opacity:1;fill-rule:nonzero;stroke:none"
             d="m 0,0 c -1.516,0 -2.745,-1.229 -2.745,-2.744 0,-1.516 1.229,-2.745 2.745,-2.745 1.516,0 2.745,1.229 2.745,2.745 C 2.745,-1.229 1.516,0 0,0" /></g><g
           transform="translate(23.8091,5.4892)"
           id="g28"><path
             id="path30"
             style="fill:#ffffff;fill-opacity:1;fill-rule:nonzero;stroke:none"
             d="m 0,0 c -1.516,0 -2.745,-1.229 -2.745,-2.744 0,-1.516 1.229,-2.745 2.745,-2.745 1.516,0 2.745,1.229 2.745,2.745 C 2.745,-1.229 1.516,0 0,0" /></g></g></g></g></svg>