<?xml version="1.0" encoding="UTF-8" standalone="no"?>
<svg
   xmlns:dc="http://purl.org/dc/elements/1.1/"
   xmlns:cc="http://creativecommons.org/ns#"
   xmlns:rdf="http://www.w3.org/1999/02/22-rdf-syntax-ns#"
   xmlns:svg="http://www.w3.org/2000/svg"
   xmlns="http://www.w3.org/2000/svg"
   viewBox="0 0 53.333332 33.333332"
   height="33.333332"
   width="53.333332"
   xml:space="preserve"
   id="svg2"
   version="1.1"><metadata
     id="metadata8"><rdf:RDF><cc:Work
         rdf:about=""><dc:format>image/svg+xml</dc:format><dc:type
           rdf:resource="http://purl.org/dc/dcmitype/StillImage" /></cc:Work></rdf:RDF></metadata><defs
     id="defs6"><clipPath
       id="clipPath18"
       clipPathUnits="userSpaceOnUse"><path
         id="path16"
         d="M 0,25 H 40 V 0 H 0 Z" /></clipPath></defs><g
     transform="matrix(1.3333333,0,0,-1.3333333,0,33.333333)"
     id="g10"><g
       id="g12"><g
         clip-path="url(#clipPath18)"
         id="g14"><g
           transform="translate(35.4046,2.8142)"
           id="g20"><path
             id="path22"
             style="fill:none;stroke:#333333;stroke-width:1;stroke-linecap:butt;stroke-linejoin:miter;stroke-miterlimit:10;stroke-dasharray:none;stroke-opacity:1"
             d="m 0,0 -29.276,-2.092 c -1.645,-0.117 -3.088,1.133 -3.206,2.779 l -1.106,15.478 c -0.117,1.646 1.133,3.089 2.779,3.207 l 29.275,2.092 c 1.646,0.117 3.089,-1.133 3.207,-2.779 L 2.779,3.206 C 2.896,1.56 1.646,0.118 0,0 Z" /></g><g
           transform="translate(38.1522,6.4542)"
           id="g24"><path
             id="path26"
             style="fill:#333333;fill-opacity:1;fill-rule:nonzero;stroke:none"
             d="m 0,0 -35.26,-2.52 -0.369,5.154 35.261,2.52 z" /></g><g
           transform="translate(12.1465,14.4452)"
           id="g28"><path
             id="path30"
             style="fill:#333333;fill-opacity:1;fill-rule:nonzero;stroke:none"
             d="m 0,0 -5.607,-0.401 c -0.488,-0.035 -0.916,0.336 -0.951,0.825 l -0.24,3.361 c -0.035,0.488 0.336,0.916 0.824,0.951 l 5.607,0.4 C 0.121,5.171 0.549,4.8 0.584,4.312 L 0.824,0.951 C 0.859,0.463 0.488,0.035 0,0" /></g></g></g></g></svg>