<?xml version="1.0" encoding="UTF-8" standalone="yes"?>
<!-- Created with sK1/UniConvertor (http://sk1project.org/) -->
<svg xmlns="http://www.w3.org/2000/svg" xmlns:xlink="http://www.w3.org/1999/xlink"
  width="595.276pt" height="841.89pt" viewBox="0 0 595.276 841.89"
  fill-rule="evenodd">
<g>
<defs><linearGradient id="1" x1="187.404" y1="901.678" x2="187.404" y2="876.645" gradientUnits="userSpaceOnUse">
<stop offset="0" style="stop-color:#e7e1ef"/>
<stop offset="1" style="stop-color:#ac9bc6"/>
</linearGradient>
</defs><path style="stroke:none; fill:url(#1)" d="M 197.978 901.678L 187.403 890.056L 176.83 901.678L 176.83 876.645L 197.978 876.645L 197.978 901.678z"/>
<defs><linearGradient id="2" x1="140.075" y1="894.348" x2="140.075" y2="876.645" gradientUnits="userSpaceOnUse">
<stop offset="0" style="stop-color:#d5cde4"/>
<stop offset="1" style="stop-color:#ac9bc6"/>
</linearGradient>
</defs><path style="stroke:none; fill:url(#2)" d="M 150.373 894.348L 140.211 890.723L 129.777 894.348L 129.777 876.645L 150.373 876.645L 150.373 894.348z"/>
<defs><linearGradient id="3" x1="59.6015" y1="899.543" x2="59.6015" y2="876.645" gradientUnits="userSpaceOnUse">
<stop offset="0" style="stop-color:#e0dbec"/>
<stop offset="1" style="stop-color:#ac9bc6"/>
</linearGradient>
</defs><path style="stroke:none; fill:url(#3)" d="M 70.198 899.543L 58.6667 889.89L 49.0051 899.543L 49.0051 876.645L 70.198 876.645L 70.198 899.543z"/>
<defs><linearGradient id="4" x1="77.9208" y1="881.89" x2="77.9208" y2="876.645" gradientUnits="userSpaceOnUse">
<stop offset="0" style="stop-color:#b8aad0"/>
<stop offset="1" style="stop-color:#ac9bc6"/>
</linearGradient>
</defs><path style="stroke:none; fill:url(#4)" d="M 82.0583 881.89L 73.7833 881.89L 73.7833 876.645L 82.0583 876.645L 82.0583 881.89z"/>
<defs><linearGradient id="5" x1="95.3441" y1="898.556" x2="95.3441" y2="876.645" gradientUnits="userSpaceOnUse">
<stop offset="0" style="stop-color:#dfd9eb"/>
<stop offset="1" style="stop-color:#ac9bc6"/>
</linearGradient>
</defs><path style="stroke:none; fill:url(#5)" d="M 105.918 898.556L 95.3441 889.723L 84.7707 898.556L 84.7707 876.645L 105.918 876.645L 105.918 898.556z"/>
<defs><linearGradient id="6" x1="163.521" y1="898.556" x2="163.521" y2="876.645" gradientUnits="userSpaceOnUse">
<stop offset="0" style="stop-color:#dfd9eb"/>
<stop offset="1" style="stop-color:#ac9bc6"/>
</linearGradient>
</defs><path style="stroke:none; fill:url(#6)" d="M 174.094 898.556L 163.521 889.723L 152.947 898.556L 152.947 876.645L 174.094 876.645L 174.094 898.556z"/>
<defs><linearGradient id="7" x1="117.165" y1="894.348" x2="117.165" y2="876.645" gradientUnits="userSpaceOnUse">
<stop offset="0" style="stop-color:#d5cde4"/>
<stop offset="1" style="stop-color:#ac9bc6"/>
</linearGradient>
</defs><path style="stroke:none; fill:url(#7)" d="M 126.711 894.348L 117.48 889.39L 107.618 894.348L 107.618 876.645L 126.711 876.645L 126.711 894.348z"/>
<defs><linearGradient id="8" x1="36.1328" y1="907.358" x2="36.1328" y2="876.645" gradientUnits="userSpaceOnUse">
<stop offset="0" style="stop-color:#f4f1f8"/>
<stop offset="1" style="stop-color:#ac9bc6"/>
</linearGradient>
</defs><path style="stroke:none; fill:url(#8)" d="M 46.4305 907.358L 25.835 907.358L 25.835 876.645L 46.4305 876.645L 46.4305 907.358z"/>
<defs><linearGradient id="9" x1="12.48" y1="894.899" x2="12.48" y2="876.645" gradientUnits="userSpaceOnUse">
<stop offset="0" style="stop-color:#d6cfe6"/>
<stop offset="1" style="stop-color:#ac9bc6"/>
</linearGradient>
</defs><path style="stroke:none; fill:url(#9)" d="M 22.1573 894.899L 12.48 889.223L 2.80264 894.899L 2.80264 876.645L 22.1573 876.645L 22.1573 894.899z"/>
<g>
<path style="stroke:none; fill:#333333" d="M 14.6181 910.714C 14.5564 910.254 14.4953 909.764 14.4342 909.243L 14.3419 909.243C 13.8823 910.346 13.154 911.174 12.1582 911.725C 11.1618 912.277 10.0207 912.553 8.73313 912.553C 7.47608 912.553 6.41169 912.392 5.53811 912.07C 4.66453 911.748 3.95245 911.266 3.40062 910.622C 2.84878 909.978 2.45034 909.213 2.20529 908.323C 1.95962 907.435 1.8374 906.455 1.8374 905.381C 1.8374 904.217 1.95276 903.205 2.18222 902.347C 2.41231 901.489 2.78705 900.746 3.30833 900.118C 3.82961 899.49 4.53421 898.953 5.42338 898.508C 6.31193 898.064 7.41497 897.689 8.73313 897.382L 11.9974 896.6C 12.8859 896.386 13.5144 896.072 13.8823 895.658C 14.2502 895.244 14.4342 894.655 14.4342 893.888C 14.4342 892.356 13.7283 891.589 12.3191 891.589C 11.5216 891.589 10.9398 891.812 10.5726 892.256C 10.2047 892.701 10.0045 893.582 9.9746 894.899L 2.80264 894.899C 2.80264 893.092 3.12501 891.643 3.76851 890.555C 4.412 889.468 5.20888 888.624 6.15916 888.027C 7.10881 887.429 8.13578 887.031 9.23882 886.831C 10.3425 886.632 11.3688 886.533 12.3191 886.533C 13.7595 886.533 15.0845 886.647 16.2961 886.877C 17.5063 887.107 18.5483 887.521 19.4219 888.119C 20.2954 888.716 20.9695 889.529 21.4446 890.555C 21.9198 891.583 22.1573 892.908 22.1573 894.532L 22.1573 906.668C 22.1573 907.833 22.2035 908.86 22.2951 909.749C 22.3874 910.638 22.6013 911.404 22.9386 912.047L 14.9399 912.047C 14.7858 911.618 14.6786 911.174 14.6181 910.714zM 13.8362 906.117C 14.234 905.443 14.4342 904.416 14.4342 903.036L 14.4342 900.048L 14.3419 900.048C 14.0962 900.386 13.7215 900.593 13.2158 900.669C 12.7101 900.746 12.1501 900.922 11.5378 901.198C 10.8943 901.504 10.4497 901.91 10.2047 902.416C 9.95901 902.922 9.8368 903.588 9.8368 904.416C 9.8368 905.243 10.0207 905.903 10.3886 906.392C 10.7559 906.883 11.246 907.128 11.8596 907.128C 12.7787 907.128 13.4377 906.791 13.8362 906.117z"/>
<path style="stroke:none; fill:#333333" d="M 34.11 887.176L 34.11 903.588C 34.11 904.631 34.2634 905.381 34.5701 905.841C 34.8757 906.301 35.3976 906.531 36.1327 906.531C 36.8685 906.531 37.3892 906.301 37.6959 905.841C 38.0021 905.381 38.1555 904.631 38.1555 903.588L 38.1555 887.176L 46.4305 887.176L 46.4305 912.047L 38.4317 912.047L 38.4317 909.013L 38.3394 909.013C 37.2975 911.373 35.2897 912.553 32.3173 912.553C 31.3976 912.553 30.5471 912.468 29.7658 912.3C 28.9845 912.131 28.3017 911.794 27.7199 911.288C 27.1375 910.783 26.678 910.094 26.3407 909.22C 26.0033 908.346 25.835 907.251 25.835 905.933L 25.835 887.176L 34.11 887.176z"/>
<path style="stroke:none; fill:#333333" d="M 70.198 879.223L 70.198 912.047L 62.1986 912.047L 62.1986 908.645L 62.1069 908.645C 61.5856 910.024 60.881 911.021 59.9925 911.633C 59.1027 912.246 57.9236 912.553 56.452 912.553C 53.6941 912.553 51.763 911.465 50.66 909.289C 49.5563 907.113 49.0051 903.711 49.0051 899.083C 49.0051 896.723 49.1884 894.746 49.5563 893.153C 49.9242 891.559 50.4374 890.272 51.0964 889.291C 51.7555 888.31 52.5599 887.606 53.5102 887.176C 54.4598 886.747 55.5018 886.533 56.636 886.533C 57.8007 886.533 58.8502 886.785 59.7855 887.291C 60.7202 887.796 61.4017 888.693 61.8313 889.981L 61.923 889.981L 61.923 879.223L 70.198 879.223zM 57.3718 902.945C 57.4329 903.834 57.5476 904.547 57.7166 905.082C 57.8849 905.619 58.1225 905.994 58.4293 906.209C 58.7354 906.423 59.1339 906.531 59.6246 906.531C 60.0842 906.531 60.467 906.423 60.7738 906.209C 61.0799 905.994 61.3175 905.619 61.4865 905.082C 61.6542 904.547 61.7696 903.834 61.8313 902.945C 61.8924 902.056 61.923 900.953 61.923 899.634C 61.923 898.286 61.8924 897.168 61.8313 896.278C 61.7696 895.39 61.6542 894.677 61.4865 894.141C 61.3175 893.605 61.0799 893.229 60.7738 893.015C 60.467 892.8 60.0842 892.693 59.6246 892.693C 59.1339 892.693 58.7354 892.8 58.4293 893.015C 58.1225 893.229 57.8849 893.605 57.7166 894.141C 57.5476 894.677 57.4329 895.39 57.3718 896.278C 57.31 897.168 57.2801 898.286 57.2801 899.634C 57.2801 900.953 57.31 902.056 57.3718 902.945z"/>
<path style="stroke:none; fill:#333333" d="M 82.0583 879.223L 82.0583 885.383L 73.7833 885.383L 73.7833 879.223L 82.0583 879.223zM 82.0583 887.176L 82.0583 912.047L 73.7833 912.047L 73.7833 887.176L 82.0583 887.176z"/>
<path style="stroke:none; fill:#333333" d="M 105.573 904.416C 105.343 905.979 104.861 907.366 104.125 908.577C 103.389 909.787 102.324 910.753 100.93 911.472C 99.5349 912.192 97.673 912.553 95.3441 912.553C 92.9229 912.553 91.0068 912.223 89.5976 911.565C 88.1877 910.905 87.1302 909.986 86.4256 908.806C 85.7204 907.627 85.2683 906.248 85.0694 904.669C 84.8699 903.091 84.7707 901.397 84.7707 899.589C 84.7707 897.965 84.8855 896.371 85.1155 894.808C 85.345 893.244 85.8276 891.85 86.5634 890.624C 87.2992 889.398 88.3636 888.41 89.7584 887.659C 91.1527 886.908 93.0146 886.533 95.3441 886.533C 97.7647 886.533 99.6808 886.877 101.091 887.567C 102.5 888.257 103.557 889.199 104.263 890.394C 104.967 891.589 105.419 892.977 105.619 894.554C 105.818 896.134 105.918 897.827 105.918 899.634C 105.918 901.259 105.803 902.852 105.573 904.416zM 93.1374 903.473C 93.1985 904.47 93.3213 905.259 93.5053 905.841C 93.6892 906.423 93.9262 906.822 94.218 907.036C 94.5086 907.251 94.8846 907.358 95.3441 907.358C 95.8036 907.358 96.1865 907.251 96.4933 907.036C 96.7994 906.822 97.037 906.423 97.206 905.841C 97.3743 905.259 97.4891 904.47 97.5508 903.473C 97.6119 902.478 97.6425 901.198 97.6425 899.634C 97.6425 898.072 97.6119 896.784 97.5508 895.773C 97.4891 894.761 97.3743 893.965 97.206 893.382C 97.037 892.8 96.7994 892.402 96.4933 892.188C 96.1865 891.973 95.8036 891.865 95.3441 891.865C 94.8846 891.865 94.5086 891.973 94.218 892.188C 93.9262 892.402 93.6892 892.8 93.5053 893.382C 93.3213 893.965 93.1985 894.761 93.1374 895.773C 93.0757 896.784 93.0457 898.072 93.0457 899.634C 93.0457 901.198 93.0757 902.478 93.1374 903.473z"/>
<path style="stroke:none; fill:#333333" d="M 115.021 905.703C 115.112 906.132 115.265 906.485 115.48 906.76C 115.878 907.343 116.46 907.634 117.227 907.634C 117.871 907.634 118.429 907.45 118.905 907.082C 119.38 906.715 119.617 906.193 119.617 905.519C 119.617 904.784 119.319 904.217 118.721 903.818C 118.123 903.42 117.38 903.068 116.492 902.761C 115.602 902.455 114.645 902.133 113.618 901.796C 112.591 901.458 111.633 900.999 110.745 900.416C 109.856 899.834 109.113 899.06 108.515 898.095C 107.918 897.129 107.618 895.865 107.618 894.302C 107.618 893.199 107.817 892.18 108.216 891.245C 108.614 890.31 109.22 889.491 110.032 888.785C 110.844 888.081 111.871 887.529 113.113 887.13C 114.354 886.732 115.817 886.533 117.503 886.533C 123.724 886.533 126.835 889.138 126.835 894.348L 119.663 894.348C 119.663 893.275 119.472 892.548 119.089 892.164C 118.705 891.781 118.161 891.589 117.457 891.589C 116.843 891.589 116.337 891.758 115.94 892.095C 115.541 892.432 115.342 892.908 115.342 893.521C 115.342 894.226 115.641 894.755 116.238 895.106C 116.836 895.459 117.579 895.773 118.468 896.049C 119.357 896.325 120.314 896.616 121.341 896.922C 122.368 897.229 123.326 897.666 124.215 898.233C 125.103 898.8 125.847 899.566 126.444 900.531C 127.042 901.496 127.341 902.776 127.341 904.37C 127.341 905.596 127.111 906.715 126.651 907.726C 126.191 908.737 125.54 909.61 124.697 910.346C 123.854 911.082 122.812 911.633 121.571 912.001C 120.33 912.369 118.928 912.553 117.365 912.553C 113.901 912.553 111.411 911.863 109.894 910.484C 108.377 909.105 107.618 907.052 107.618 904.324L 114.882 904.324C 114.882 904.815 114.928 905.274 115.021 905.703z"/>
<path style="stroke:none; fill:#333333" d="M 138.053 879.223L 138.053 889.935L 138.144 889.935C 138.848 888.617 139.73 887.72 140.788 887.245C 141.845 886.77 142.879 886.533 143.89 886.533C 144.748 886.533 145.569 886.64 146.351 886.854C 147.132 887.069 147.821 887.437 148.419 887.958C 149.017 888.479 149.491 889.176 149.844 890.049C 150.196 890.923 150.373 892.003 150.373 893.29L 150.373 912.047L 142.098 912.047L 142.098 895.635C 142.098 894.594 141.944 893.842 141.638 893.382C 141.331 892.923 140.81 892.693 140.076 892.693C 139.34 892.693 138.819 892.923 138.512 893.382C 138.205 893.842 138.053 894.594 138.053 895.635L 138.053 912.047L 129.777 912.047L 129.777 879.223L 138.053 879.223z"/>
<path style="stroke:none; fill:#333333" d="M 173.749 904.416C 173.52 905.979 173.037 907.366 172.301 908.577C 171.566 909.787 170.501 910.753 169.106 911.472C 167.711 912.192 165.849 912.553 163.521 912.553C 161.099 912.553 159.183 912.223 157.774 911.565C 156.364 910.905 155.306 909.986 154.602 908.806C 153.897 907.627 153.444 906.248 153.246 904.669C 153.046 903.091 152.947 901.397 152.947 899.589C 152.947 897.965 153.061 896.371 153.292 894.808C 153.522 893.244 154.004 891.85 154.74 890.624C 155.476 889.398 156.54 888.41 157.935 887.659C 159.329 886.908 161.191 886.533 163.521 886.533C 165.941 886.533 167.857 886.877 169.267 887.567C 170.676 888.257 171.734 889.199 172.44 890.394C 173.144 891.589 173.596 892.977 173.795 894.554C 173.995 896.134 174.095 897.827 174.095 899.634C 174.095 901.259 173.98 902.852 173.749 904.416zM 161.315 903.473C 161.374 904.47 161.498 905.259 161.681 905.841C 161.866 906.423 162.103 906.822 162.395 907.036C 162.685 907.251 163.061 907.358 163.521 907.358C 163.981 907.358 164.364 907.251 164.671 907.036C 164.976 906.822 165.214 906.423 165.383 905.841C 165.551 905.259 165.666 904.47 165.727 903.473C 165.788 902.478 165.819 901.198 165.819 899.634C 165.819 898.072 165.788 896.784 165.727 895.773C 165.666 894.761 165.551 893.965 165.383 893.382C 165.214 892.8 164.976 892.402 164.671 892.188C 164.364 891.973 163.981 891.865 163.521 891.865C 163.061 891.865 162.685 891.973 162.395 892.188C 162.103 892.402 161.866 892.8 161.681 893.382C 161.498 893.965 161.374 894.761 161.315 895.773C 161.252 896.784 161.222 898.072 161.222 899.634C 161.222 901.198 161.252 902.478 161.315 903.473z"/>
<path style="stroke:none; fill:#333333" d="M 184.806 887.176L 184.806 890.578L 184.898 890.578C 185.847 887.881 187.733 886.533 190.552 886.533C 193.311 886.533 195.242 887.652 196.345 889.888C 197.449 892.126 198 895.543 198 900.14C 198 902.531 197.817 904.524 197.449 906.117C 197.081 907.71 196.567 908.99 195.909 909.955C 195.249 910.921 194.452 911.595 193.518 911.978C 192.583 912.361 191.533 912.553 190.369 912.553C 189.203 912.553 188.154 912.323 187.219 911.863C 186.284 911.404 185.603 910.53 185.174 909.243L 185.081 909.243L 185.081 920L 176.807 920L 176.807 887.176L 184.806 887.176zM 185.174 902.945C 185.235 903.834 185.35 904.547 185.518 905.082C 185.686 905.619 185.924 905.994 186.231 906.209C 186.537 906.423 186.921 906.531 187.38 906.531C 187.87 906.531 188.269 906.423 188.576 906.209C 188.881 905.994 189.12 905.619 189.288 905.082C 189.456 904.547 189.571 903.834 189.633 902.945C 189.694 902.056 189.724 900.938 189.724 899.589C 189.724 898.24 189.694 897.129 189.633 896.255C 189.571 895.382 189.456 894.677 189.288 894.141C 189.12 893.605 188.881 893.229 188.576 893.015C 188.269 892.8 187.87 892.693 187.38 892.693C 186.921 892.693 186.537 892.8 186.231 893.015C 185.924 893.229 185.686 893.605 185.518 894.141C 185.35 894.677 185.235 895.382 185.174 896.255C 185.111 897.129 185.081 898.24 185.081 899.589C 185.081 900.938 185.111 902.056 185.174 902.945z"/>
</g>
<defs><linearGradient id="10" x1="12.48" y1="875.645" x2="12.48" y2="871.395" gradientUnits="userSpaceOnUse">
<stop offset="0" style="stop-color:#ab97c5"/>
<stop offset="1" style="stop-color:#a18bbd"/>
</linearGradient>
</defs><path style="stroke:none; fill:url(#10)" d="M 22.1573 875.645L 2.80264 875.645L 2.80264 871.395L 22.1573 871.395L 22.1573 875.645z"/>
<defs><linearGradient id="11" x1="12.48" y1="870.395" x2="12.48" y2="866.145" gradientUnits="userSpaceOnUse">
<stop offset="0" style="stop-color:#9f88bb"/>
<stop offset="1" style="stop-color:#967cb4"/>
</linearGradient>
</defs><path style="stroke:none; fill:url(#11)" d="M 22.1573 870.395L 2.80264 870.395L 2.80264 866.145L 22.1573 866.145L 22.1573 870.395z"/>
<defs><linearGradient id="12" x1="12.48" y1="865.145" x2="12.48" y2="860.895" gradientUnits="userSpaceOnUse">
<stop offset="0" style="stop-color:#9379b1"/>
<stop offset="1" style="stop-color:#8b6eab"/>
</linearGradient>
</defs><path style="stroke:none; fill:url(#12)" d="M 22.1573 865.145L 2.80264 865.145L 2.80264 860.895L 22.1573 860.895L 22.1573 865.145z"/>
<defs><linearGradient id="13" x1="36.1328" y1="875.645" x2="36.1328" y2="871.395" gradientUnits="userSpaceOnUse">
<stop offset="0" style="stop-color:#ab97c5"/>
<stop offset="1" style="stop-color:#a18bbd"/>
</linearGradient>
</defs><path style="stroke:none; fill:url(#13)" d="M 46.4305 875.645L 25.835 875.645L 25.835 871.395L 46.4305 871.395L 46.4305 875.645z"/>
<defs><linearGradient id="14" x1="36.1328" y1="870.395" x2="36.1328" y2="866.145" gradientUnits="userSpaceOnUse">
<stop offset="0" style="stop-color:#9f88bb"/>
<stop offset="1" style="stop-color:#967cb4"/>
</linearGradient>
</defs><path style="stroke:none; fill:url(#14)" d="M 46.4305 870.395L 25.835 870.395L 25.835 866.145L 46.4305 866.145L 46.4305 870.395z"/>
<defs><linearGradient id="15" x1="36.1328" y1="865.145" x2="36.1328" y2="860.895" gradientUnits="userSpaceOnUse">
<stop offset="0" style="stop-color:#9379b1"/>
<stop offset="1" style="stop-color:#8b6eab"/>
</linearGradient>
</defs><path style="stroke:none; fill:url(#15)" d="M 46.4305 865.145L 25.835 865.145L 25.835 860.895L 46.4305 860.895L 46.4305 865.145z"/>
<defs><linearGradient id="16" x1="36.1328" y1="859.895" x2="36.1328" y2="855.645" gradientUnits="userSpaceOnUse">
<stop offset="0" style="stop-color:#886ca9"/>
<stop offset="1" style="stop-color:#8161a1"/>
</linearGradient>
</defs><path style="stroke:none; fill:url(#16)" d="M 46.4305 859.895L 25.835 859.895L 25.835 855.645L 46.4305 855.645L 46.4305 859.895z"/>
<defs><linearGradient id="17" x1="36.1328" y1="854.645" x2="36.1328" y2="850.395" gradientUnits="userSpaceOnUse">
<stop offset="0" style="stop-color:#7d5fa0"/>
<stop offset="1" style="stop-color:#76559a"/>
</linearGradient>
</defs><path style="stroke:none; fill:url(#17)" d="M 46.4305 854.645L 25.835 854.645L 25.835 850.395L 46.4305 850.395L 46.4305 854.645z"/>
<defs><linearGradient id="18" x1="59.6015" y1="875.645" x2="59.6015" y2="871.395" gradientUnits="userSpaceOnUse">
<stop offset="0" style="stop-color:#ab97c5"/>
<stop offset="1" style="stop-color:#a18bbd"/>
</linearGradient>
</defs><path style="stroke:none; fill:url(#18)" d="M 70.198 875.645L 49.0051 875.645L 49.0051 871.395L 70.198 871.395L 70.198 875.645z"/>
<defs><linearGradient id="19" x1="59.6015" y1="870.395" x2="59.6015" y2="866.145" gradientUnits="userSpaceOnUse">
<stop offset="0" style="stop-color:#9f88bb"/>
<stop offset="1" style="stop-color:#967cb4"/>
</linearGradient>
</defs><path style="stroke:none; fill:url(#19)" d="M 70.198 870.395L 49.0051 870.395L 49.0051 866.145L 70.198 866.145L 70.198 870.395z"/>
<defs><linearGradient id="20" x1="77.9208" y1="875.645" x2="77.9208" y2="871.395" gradientUnits="userSpaceOnUse">
<stop offset="0" style="stop-color:#ab97c5"/>
<stop offset="1" style="stop-color:#a18bbd"/>
</linearGradient>
</defs><path style="stroke:none; fill:url(#20)" d="M 82.0583 875.645L 73.7833 875.645L 73.7833 871.395L 82.0583 871.395L 82.0583 875.645z"/>
<defs><linearGradient id="21" x1="77.9208" y1="870.395" x2="77.9208" y2="866.145" gradientUnits="userSpaceOnUse">
<stop offset="0" style="stop-color:#9f88bb"/>
<stop offset="1" style="stop-color:#967cb4"/>
</linearGradient>
</defs><path style="stroke:none; fill:url(#21)" d="M 82.0583 870.395L 73.7833 870.395L 73.7833 866.145L 82.0583 866.145L 82.0583 870.395z"/>
<defs><linearGradient id="22" x1="77.9208" y1="865.145" x2="77.9208" y2="860.895" gradientUnits="userSpaceOnUse">
<stop offset="0" style="stop-color:#9379b1"/>
<stop offset="1" style="stop-color:#8b6eab"/>
</linearGradient>
</defs><path style="stroke:none; fill:url(#22)" d="M 82.0583 865.145L 73.7833 865.145L 73.7833 860.895L 82.0583 860.895L 82.0583 865.145z"/>
<defs><linearGradient id="23" x1="77.9208" y1="859.895" x2="77.9208" y2="855.645" gradientUnits="userSpaceOnUse">
<stop offset="0" style="stop-color:#886ca9"/>
<stop offset="1" style="stop-color:#8161a1"/>
</linearGradient>
</defs><path style="stroke:none; fill:url(#23)" d="M 82.0583 859.895L 73.7833 859.895L 73.7833 855.645L 82.0583 855.645L 82.0583 859.895z"/>
<defs><linearGradient id="24" x1="77.9208" y1="854.645" x2="77.9208" y2="850.395" gradientUnits="userSpaceOnUse">
<stop offset="0" style="stop-color:#7d5fa0"/>
<stop offset="1" style="stop-color:#76559a"/>
</linearGradient>
</defs><path style="stroke:none; fill:url(#24)" d="M 82.0583 854.645L 73.7833 854.645L 73.7833 850.395L 82.0583 850.395L 82.0583 854.645z"/>
<defs><linearGradient id="25" x1="77.9208" y1="849.395" x2="77.9208" y2="845.145" gradientUnits="userSpaceOnUse">
<stop offset="0" style="stop-color:#745297"/>
<stop offset="1" style="stop-color:#6b4a92"/>
</linearGradient>
</defs><path style="stroke:none; fill:url(#25)" d="M 82.0583 849.395L 73.7833 849.395L 73.7833 845.145L 82.0583 845.145L 82.0583 849.395z"/>
<defs><linearGradient id="26" x1="95.3441" y1="875.645" x2="95.3441" y2="871.395" gradientUnits="userSpaceOnUse">
<stop offset="0" style="stop-color:#ab97c5"/>
<stop offset="1" style="stop-color:#a18bbd"/>
</linearGradient>
</defs><path style="stroke:none; fill:url(#26)" d="M 105.918 875.645L 84.7707 875.645L 84.7707 871.395L 105.918 871.395L 105.918 875.645z"/>
<defs><linearGradient id="27" x1="95.3441" y1="870.395" x2="95.3441" y2="866.145" gradientUnits="userSpaceOnUse">
<stop offset="0" style="stop-color:#9f88bb"/>
<stop offset="1" style="stop-color:#967cb4"/>
</linearGradient>
</defs><path style="stroke:none; fill:url(#27)" d="M 105.918 870.395L 84.7707 870.395L 84.7707 866.145L 105.918 866.145L 105.918 870.395z"/>
<defs><linearGradient id="28" x1="95.3441" y1="865.145" x2="95.3441" y2="860.895" gradientUnits="userSpaceOnUse">
<stop offset="0" style="stop-color:#9379b1"/>
<stop offset="1" style="stop-color:#8b6eab"/>
</linearGradient>
</defs><path style="stroke:none; fill:url(#28)" d="M 105.918 865.145L 84.7707 865.145L 84.7707 860.895L 105.918 860.895L 105.918 865.145z"/>
<defs><linearGradient id="29" x1="117.165" y1="875.645" x2="117.165" y2="871.395" gradientUnits="userSpaceOnUse">
<stop offset="0" style="stop-color:#ab97c5"/>
<stop offset="1" style="stop-color:#a18bbd"/>
</linearGradient>
</defs><path style="stroke:none; fill:url(#29)" d="M 126.711 875.645L 107.618 875.645L 107.618 871.395L 126.711 871.395L 126.711 875.645z"/>
<defs><linearGradient id="30" x1="117.165" y1="870.395" x2="117.165" y2="866.145" gradientUnits="userSpaceOnUse">
<stop offset="0" style="stop-color:#9f88bb"/>
<stop offset="1" style="stop-color:#967cb4"/>
</linearGradient>
</defs><path style="stroke:none; fill:url(#30)" d="M 126.711 870.395L 107.618 870.395L 107.618 866.145L 126.711 866.145L 126.711 870.395z"/>
<defs><linearGradient id="31" x1="117.165" y1="865.145" x2="117.165" y2="860.895" gradientUnits="userSpaceOnUse">
<stop offset="0" style="stop-color:#9379b1"/>
<stop offset="1" style="stop-color:#8b6eab"/>
</linearGradient>
</defs><path style="stroke:none; fill:url(#31)" d="M 126.711 865.145L 107.618 865.145L 107.618 860.895L 126.711 860.895L 126.711 865.145z"/>
<defs><linearGradient id="32" x1="117.165" y1="859.895" x2="117.165" y2="855.645" gradientUnits="userSpaceOnUse">
<stop offset="0" style="stop-color:#886ca9"/>
<stop offset="1" style="stop-color:#8161a1"/>
</linearGradient>
</defs><path style="stroke:none; fill:url(#32)" d="M 126.711 859.895L 107.618 859.895L 107.618 855.645L 126.711 855.645L 126.711 859.895z"/>
<defs><linearGradient id="33" x1="140.075" y1="875.645" x2="140.075" y2="871.395" gradientUnits="userSpaceOnUse">
<stop offset="0" style="stop-color:#ab97c5"/>
<stop offset="1" style="stop-color:#a18bbd"/>
</linearGradient>
</defs><path style="stroke:none; fill:url(#33)" d="M 150.373 875.645L 129.777 875.645L 129.777 871.395L 150.373 871.395L 150.373 875.645z"/>
<defs><linearGradient id="34" x1="140.075" y1="870.395" x2="140.075" y2="866.145" gradientUnits="userSpaceOnUse">
<stop offset="0" style="stop-color:#9f88bb"/>
<stop offset="1" style="stop-color:#967cb4"/>
</linearGradient>
</defs><path style="stroke:none; fill:url(#34)" d="M 150.373 870.395L 129.777 870.395L 129.777 866.145L 150.373 866.145L 150.373 870.395z"/>
<defs><linearGradient id="35" x1="163.521" y1="875.645" x2="163.521" y2="871.395" gradientUnits="userSpaceOnUse">
<stop offset="0" style="stop-color:#ab97c5"/>
<stop offset="1" style="stop-color:#a18bbd"/>
</linearGradient>
</defs><path style="stroke:none; fill:url(#35)" d="M 174.095 875.645L 152.947 875.645L 152.947 871.395L 174.095 871.395L 174.095 875.645z"/>
<defs><linearGradient id="36" x1="187.392" y1="875.645" x2="187.392" y2="871.395" gradientUnits="userSpaceOnUse">
<stop offset="0" style="stop-color:#ab97c5"/>
<stop offset="1" style="stop-color:#a18bbd"/>
</linearGradient>
</defs><path style="stroke:none; fill:url(#36)" d="M 197.978 875.645L 176.807 875.645L 176.807 871.395L 197.978 871.395L 197.978 875.645z"/>
<defs><linearGradient id="37" x1="187.392" y1="870.395" x2="187.392" y2="866.145" gradientUnits="userSpaceOnUse">
<stop offset="0" style="stop-color:#9f88bb"/>
<stop offset="1" style="stop-color:#967cb4"/>
</linearGradient>
</defs><path style="stroke:none; fill:url(#37)" d="M 197.978 870.395L 176.807 870.395L 176.807 866.145L 197.978 866.145L 197.978 870.395z"/>
<defs><linearGradient id="38" x1="187.392" y1="865.145" x2="187.392" y2="860.895" gradientUnits="userSpaceOnUse">
<stop offset="0" style="stop-color:#9379b1"/>
<stop offset="1" style="stop-color:#8b6eab"/>
</linearGradient>
</defs><path style="stroke:none; fill:url(#38)" d="M 197.978 865.145L 176.807 865.145L 176.807 860.895L 197.978 860.895L 197.978 865.145z"/>
<defs><linearGradient id="39" x1="187.392" y1="859.895" x2="187.392" y2="855.645" gradientUnits="userSpaceOnUse">
<stop offset="0" style="stop-color:#886ca9"/>
<stop offset="1" style="stop-color:#8161a1"/>
</linearGradient>
</defs><path style="stroke:none; fill:url(#39)" d="M 197.978 859.895L 176.807 859.895L 176.807 855.645L 197.978 855.645L 197.978 859.895z"/>
<defs><linearGradient id="40" x1="187.392" y1="854.645" x2="187.392" y2="850.395" gradientUnits="userSpaceOnUse">
<stop offset="0" style="stop-color:#7d5fa0"/>
<stop offset="1" style="stop-color:#76559a"/>
</linearGradient>
</defs><path style="stroke:none; fill:url(#40)" d="M 197.978 854.645L 176.807 854.645L 176.807 850.395L 197.978 850.395L 197.978 854.645z"/>
</g>
</svg>